<svg id="Слой_3" data-name="Слой 3" xmlns="http://www.w3.org/2000/svg" viewBox="0 0 998.29 195.28"><defs><style>.cls-1{fill:#85c121;}.cls-2{fill:#86c320;}.cls-3,.cls-4{fill:#333d47;}.cls-4{font-size:84.05px;font-family:Montserrat-SemiBold, Montserrat;font-weight:700;letter-spacing:0.01em;}.cls-5{letter-spacing:0.02em;}.cls-6{letter-spacing:0.03em;}.cls-7{letter-spacing:0.02em;}.cls-8{letter-spacing:-0.04em;}.cls-9{letter-spacing:0.02em;}</style></defs><title>logo</title><path class="cls-1" d="M178.51,123.55v69.58c-.62.72-1.28,1.42-1.94,2.09a60.35,60.35,0,0,1-19.39,13.34v-85a5,5,0,0,1,5-5h11.4A5,5,0,0,1,178.51,123.55Z" transform="translate(-40.86 -62.36)"/><path class="cls-1" d="M143.61,150.69v62a61.55,61.55,0,0,1-21.33,0v-62a5,5,0,0,1,5-5h11.4A5,5,0,0,1,143.61,150.69Z" transform="translate(-40.86 -62.36)"/><path class="cls-1" d="M108.72,169.44v39.15c-.66-.27-1.3-.56-1.94-.87a61.12,61.12,0,0,1-19.39-14.58V169.44c0-3.45,2.23-6.26,5-6.26h11.4C106.49,163.18,108.72,166,108.72,169.44Z" transform="translate(-40.86 -62.36)"/><path class="cls-2" d="M106.78,201.6c.64.31,1.28.61,1.94.9v8c-.66-.29-1.3-.61-1.94-.94a61.8,61.8,0,0,1-19.39-15.75c-.66-.8-1.32-1.61-1.94-2.45a68.2,68.2,0,0,1-12.66-30.14,66.61,66.61,0,0,0,12.66,23.67c.62.75,1.26,1.49,1.94,2.2A62.48,62.48,0,0,0,106.78,201.6Z" transform="translate(-40.86 -62.36)"/><path class="cls-2" d="M193.11,161.24a67.84,67.84,0,0,1-14.6,32.59c-.62.77-1.28,1.53-1.94,2.26a60.45,60.45,0,0,1-19.39,14.41v-8a62.66,62.66,0,0,0,19.39-13.28c.66-.67,1.32-1.36,1.94-2.05A66.63,66.63,0,0,0,193.11,161.24Z" transform="translate(-40.86 -62.36)"/><path class="cls-3" d="M210.27,125.05l-16.92,24.36a3.83,3.83,0,0,0,3.14,6h33.83a3.83,3.83,0,0,0,3.14-6l-16.92-24.36A3.83,3.83,0,0,0,210.27,125.05Z" transform="translate(-40.86 -62.36)"/><path class="cls-3" d="M195.07,252.69,194.19,221a4.81,4.81,0,0,0-7.34-4l-27,16.69a4.81,4.81,0,0,0,.26,8.33l27.9,15A4.81,4.81,0,0,0,195.07,252.69Z" transform="translate(-40.86 -62.36)"/><path class="cls-3" d="M222.14,136l-20.53,13.47q.17,2.44.17,4.94A68.91,68.91,0,0,1,133,223.28a68.12,68.12,0,0,1-19.08-2.7l-22.3,8.3a2.13,2.13,0,0,1-3.08-1.78L85,203.76A68.81,68.81,0,1,1,190.9,117.35l14-20.24A92,92,0,1,0,225,154.45C225,143.6,225.61,145.73,222.14,136Z" transform="translate(-40.86 -62.36)"/><text class="cls-4" transform="translate(255.11 128.27)">V<tspan class="cls-5" x="62.11" y="0">L</tspan><tspan class="cls-6" x="114.14" y="0">-</tspan><tspan x="149.02" y="0">C</tspan><tspan class="cls-7" x="210.97" y="0">ONSU</tspan><tspan class="cls-8" x="477.41" y="0">L</tspan><tspan class="cls-9" x="524.4" y="0">TING</tspan></text></svg>